PathFileType   4   (X/Y/Z)
DataRate	CameraRate	NumFrames	NumMarkers	Units	OrigDataRate	OrigDataStartFrame	OrigNumFrames
120.0	120.0	10	37	mm	120.0	66	105
Frame#	Time	midhip	hip_r	hip_l	knee_r	knee_l	ankle_r	ankle_l	midasis	asis_r	asis_l	psis_r	psis_l	epicondLat_r	epicondLat_l	epicondMed_r	epicondMed_l	malleolusLat_r	malleolusLat_l	malleolusMedv_r	malleolusMedv_l	neck	subclavicle_r	subclavicle_l	sternalnotch	xyphoidprocess	thighwand_r	thighwand_l	upperleg1_r	upperleg1_l	upperleg2_r	upperleg2_l	shankwand_r	shankwand_l	lowerleg1_r	lowerleg1_l	toe_r	toe_l
 	 	X1	Y1	Z1	X2	Y2	Z2	X3	Y3	Z3	X4	Y4	Z4	X5	Y5	Z5	X6	Y6	Z6	X7	Y7	Z7	X8	Y8	Z8	X9	Y9	Z9	X10	Y10	Z10	X11	Y11	Z11	X12	Y12	Z12	X13	Y13	Z13	X14	Y14	Z14	X15	Y15	Z15	X16	Y16	Z16	X17	Y17	Z17	X18	Y18	Z18	X19	Y19	Z19	X20	Y20	Z20	X21	Y21	Z21	X22	Y22	Z22	X23	Y23	Z23	X24	Y24	Z24	X25	Y25	Z25	X26	Y26	Z26	X27	Y27	Z27	X28	Y28	Z28	X29	Y29	Z29	X30	Y30	Z30	X31	Y31	Z31	X32	Y32	Z32	X33	Y33	Z33	X34	Y34	Z34	X35	Y35	Z35	X36	Y36	Z36	X37	Y37	Z37

	66	0.65000	1238.059	726.488	-236.109	1219.075	715.965	-169.356	1226.834	730.424	-298.634	1209.360	378.133	-165.649	1323.825	422.079	-273.311	941.326	180.728	-179.034	1304.325	69.095	-258.649	1296.664	787.420	-222.388	1290.699	776.305	-123.005	1302.629	798.536	-321.771	1140.650	833.103	-195.500	1140.470	837.686	-250.195	1202.648	378.925	-111.066	1330.282	419.670	-327.373	1231.373	364.443	-208.558	1318.236	391.268	-236.780	933.589	188.807	-143.242	1304.598	67.544	-295.616	948.842	181.360	-202.598	1304.645	67.680	-228.403	1163.645	1200.964	-236.954	1273.877	1144.650	-198.826	1271.521	1147.021	-274.893	1257.977	1144.343	-237.847	1287.810	1062.686	-238.909	1305.240	489.183	-43.138	1428.731	576.958	-274.477	1233.584	542.917	-88.303	1350.476	611.163	-323.508	1237.310	457.218	-100.960	1364.242	524.955	-316.952	1010.371	271.031	-62.946	1342.281	183.209	-371.820	991.607	243.646	-139.350	1313.534	149.162	-300.239	931.325	77.944	-168.324	1406.737	37.433	-262.702
	67	0.65833	1248.647	728.596	-237.519	1229.494	717.657	-169.499	1236.950	731.924	-298.817	1232.401	379.749	-163.935	1328.857	422.166	-273.679	965.367	183.788	-178.396	1304.117	69.075	-258.799	1307.027	788.955	-222.824	1301.287	777.970	-123.259	1312.768	799.939	-322.390	1151.305	834.725	-195.550	1150.501	839.471	-250.097	1226.301	380.596	-109.281	1334.639	419.489	-327.805	1253.443	365.672	-206.655	1322.892	391.644	-236.545	957.726	191.551	-142.512	1304.610	67.482	-295.761	973.257	183.918	-201.980	1304.575	67.843	-228.573	1175.096	1202.908	-236.822	1285.040	1146.155	-198.491	1280.694	1147.740	-274.468	1268.109	1145.607	-237.061	1297.027	1063.620	-238.016	1325.682	493.605	-42.907	1436.168	574.915	-276.543	1251.230	544.609	-87.398	1357.769	610.646	-324.366	1257.751	459.399	-99.615	1370.028	524.323	-317.818	1034.528	272.659	-61.880	1344.498	182.663	-371.908	1015.798	246.003	-138.787	1314.912	148.993	-300.682	958.589	80.721	-164.644	1406.666	37.395	-262.872
	68	0.66667	1258.600	730.051	-238.190	1240.007	719.519	-169.569	1246.946	733.409	-298.956	1255.000	381.794	-162.355	1333.653	422.210	-273.973	990.173	185.791	-177.780	1304.036	69.060	-258.941	1317.376	790.603	-223.413	1312.028	779.898	-123.700	1322.724	801.307	-323.126	1161.899	836.479	-195.524	1160.691	841.212	-250.005	1249.696	382.727	-107.619	1338.721	419.272	-328.157	1275.924	367.317	-204.536	1325.413	392.755	-236.121	982.526	193.295	-141.843	1304.636	67.436	-295.900	998.161	185.601	-201.525	1304.530	68.007	-228.721	1186.492	1204.495	-236.662	1296.124	1147.624	-198.012	1292.819	1149.655	-273.608	1279.725	1147.280	-236.598	1308.790	1065.346	-237.662	1346.259	498.555	-43.026	1443.425	572.777	-278.622	1269.080	546.823	-86.573	1365.806	610.278	-325.391	1278.538	462.132	-98.245	1375.512	523.527	-318.606	1058.796	273.958	-61.032	1346.375	182.183	-372.030	1040.535	247.498	-138.224	1316.079	148.830	-300.929	986.807	82.697	-161.226	1406.617	37.372	-263.034
	69	0.67500	1267.874	730.961	-238.611	1250.597	721.468	-169.597	1256.851	734.844	-299.073	1277.188	384.163	-160.951	1338.194	422.222	-274.184	1015.619	186.739	-177.168	1304.163	69.037	-259.055	1327.724	792.286	-224.135	1322.902	781.974	-124.319	1332.545	802.598	-323.951	1172.458	838.338	-195.458	1170.826	842.923	-249.882	1272.804	385.223	-106.136	1342.517	419.029	-328.418	1297.454	369.801	-202.888	1329.876	393.144	-235.803	1007.897	194.016	-141.201	1304.672	67.405	-296.016	1023.736	186.058	-200.806	1304.583	68.147	-228.862	1197.783	1205.853	-236.430	1307.160	1149.110	-197.486	1304.237	1151.409	-273.114	1290.958	1148.877	-236.169	1320.169	1066.997	-237.380	1366.819	504.000	-43.458	1450.539	570.565	-280.704	1287.855	549.734	-85.792	1372.777	609.643	-326.325	1299.374	465.285	-97.169	1380.989	522.791	-319.470	1083.214	274.837	-60.327	1347.708	181.787	-372.234	1065.566	248.293	-137.573	1316.973	148.724	-301.195	1015.805	83.922	-158.060	1406.595	37.360	-263.179
	70	0.68333	1277.302	731.846	-238.426	1261.091	723.480	-169.472	1266.467	736.154	-299.059	1299.008	386.817	-159.778	1342.496	422.198	-274.296	1041.601	186.679	-176.557	1304.494	69.000	-259.131	1337.927	793.906	-224.921	1333.783	784.135	-125.021	1342.071	803.677	-324.822	1183.005	840.249	-195.380	1181.141	844.560	-249.807	1295.618	388.015	-104.896	1346.051	418.778	-328.573	1318.414	372.982	-201.889	1334.312	393.472	-235.616	1033.768	193.736	-140.569	1304.708	67.390	-296.095	1049.905	185.457	-199.951	1304.702	68.271	-228.999	1209.093	1207.458	-236.289	1318.193	1150.622	-197.119	1315.345	1153.019	-272.797	1302.028	1150.457	-235.843	1331.142	1068.543	-237.125	1387.188	509.884	-44.141	1457.514	568.285	-282.709	1306.560	552.834	-84.973	1379.614	608.904	-327.496	1319.975	468.793	-96.400	1386.445	521.955	-320.448	1107.793	275.232	-59.694	1348.484	181.484	-372.514	1090.817	248.420	-136.940	1317.799	148.746	-301.474	1045.608	84.438	-155.193	1406.601	37.351	-263.301
	71	0.69167	1287.125	733.010	-238.096	1271.620	725.453	-169.297	1275.992	737.316	-298.998	1320.533	389.710	-158.877	1346.556	422.158	-274.308	1068.064	185.661	-175.947	1304.961	68.955	-259.164	1348.122	795.414	-225.785	1344.753	786.273	-125.849	1351.491	804.555	-325.722	1193.557	842.141	-195.300	1191.451	846.110	-249.745	1318.111	391.062	-103.947	1349.372	418.534	-328.614	1339.413	376.660	-201.139	1337.934	394.031	-235.493	1060.104	192.498	-139.945	1304.741	67.396	-296.130	1076.701	184.012	-199.062	1304.851	68.380	-229.060	1220.250	1209.241	-236.210	1329.266	1152.089	-196.782	1326.474	1154.542	-272.450	1313.127	1151.986	-235.512	1342.054	1070.007	-236.829	1407.190	516.128	-44.995	1464.332	565.932	-284.539	1324.506	556.166	-84.169	1386.762	608.132	-328.732	1340.240	472.714	-95.783	1391.852	521.034	-321.390	1132.508	275.107	-59.091	1348.845	181.271	-372.827	1116.339	247.914	-136.388	1318.345	148.817	-301.685	1076.268	84.262	-152.636	1406.637	37.341	-263.396
	72	0.70000	1297.797	734.605	-237.271	1282.139	727.354	-169.177	1285.592	738.348	-298.982	1341.814	392.805	-158.263	1350.373	422.118	-274.207	1094.991	183.712	-175.347	1305.457	68.912	-259.158	1358.351	796.804	-226.682	1355.691	788.336	-126.703	1361.010	805.272	-326.660	1204.122	843.945	-195.222	1201.998	847.516	-249.763	1340.260	394.320	-103.306	1352.530	418.304	-328.530	1360.383	380.407	-200.265	1341.700	394.313	-235.699	1086.889	190.335	-139.336	1304.764	67.425	-296.121	1104.033	181.802	-198.150	1305.070	68.419	-229.083	1231.359	1211.063	-236.127	1340.324	1153.416	-196.394	1337.620	1155.916	-272.069	1324.226	1153.388	-235.143	1352.873	1071.311	-236.471	1426.667	522.618	-45.934	1470.974	563.501	-286.098	1342.067	559.757	-83.670	1393.921	607.241	-329.744	1360.168	476.945	-95.270	1397.379	520.107	-322.274	1157.316	274.445	-58.515	1349.030	181.132	-373.097	1141.869	246.885	-135.839	1318.582	148.851	-301.778	1107.800	83.450	-150.382	1406.698	37.329	-263.458
	73	0.70833	1308.815	736.351	-236.482	1292.665	729.118	-169.159	1295.395	739.250	-299.052	1362.873	396.054	-157.909	1353.977	422.083	-273.976	1122.397	180.856	-174.755	1305.878	68.882	-259.112	1368.656	798.064	-227.554	1366.554	790.262	-127.522	1370.759	805.866	-327.586	1214.708	845.599	-195.140	1212.544	848.776	-249.774	1362.044	397.736	-102.941	1355.590	418.085	-328.305	1380.974	383.975	-199.127	1345.452	394.277	-236.228	1114.128	187.277	-138.746	1304.778	67.476	-296.068	1131.548	179.038	-197.509	1305.298	68.407	-229.083	1242.616	1212.445	-235.978	1351.394	1154.549	-196.076	1348.393	1156.960	-271.940	1335.139	1154.526	-234.860	1363.498	1072.349	-236.185	1445.532	529.221	-46.887	1477.427	561.002	-287.290	1359.281	563.471	-83.478	1400.990	606.195	-330.516	1379.599	481.308	-94.791	1402.925	519.130	-323.082	1182.185	273.244	-57.981	1349.282	181.037	-373.243	1167.486	245.281	-135.297	1318.826	148.945	-301.703	1140.162	82.083	-148.361	1406.776	37.311	-263.479
	74	0.71667	1320.025	737.959	-235.286	1303.166	730.721	-169.037	1305.169	739.995	-299.007	1383.605	399.429	-157.780	1357.435	422.026	-273.613	1150.295	177.138	-174.171	1306.188	68.874	-259.022	1378.936	799.153	-228.318	1377.395	792.016	-128.309	1380.477	806.289	-328.326	1225.288	847.083	-195.021	1223.292	849.847	-249.810	1383.396	401.246	-102.810	1358.607	417.880	-327.942	1400.481	387.888	-198.075	1348.603	394.503	-236.183	1141.832	183.367	-138.173	1304.805	67.548	-295.972	1159.373	175.653	-197.044	1305.465	68.453	-228.933	1253.762	1213.459	-235.785	1362.547	1155.581	-195.890	1359.140	1157.886	-271.877	1346.084	1155.519	-234.656	1374.349	1073.310	-236.008	1463.779	535.797	-47.817	1483.693	558.449	-288.065	1375.891	567.498	-83.063	1407.980	605.067	-331.002	1398.303	485.718	-94.294	1408.189	518.128	-323.472	1207.090	271.509	-57.510	1349.777	180.957	-373.213	1193.246	243.061	-134.758	1319.257	149.178	-301.531	1173.289	80.269	-146.559	1406.866	37.284	-263.454
	75	0.72500	1330.478	739.098	-234.892	1313.770	732.124	-168.946	1315.167	740.592	-298.979	1403.901	402.848	-157.845	1360.765	421.971	-273.144	1178.682	172.626	-173.590	1306.379	68.899	-258.893	1389.320	800.118	-229.006	1388.247	793.609	-129.055	1390.394	806.627	-328.958	1235.837	848.389	-194.836	1233.566	850.802	-249.673	1404.218	404.788	-102.881	1361.615	417.688	-327.469	1419.152	392.114	-197.243	1351.597	395.082	-235.145	1169.993	178.666	-137.614	1304.861	67.642	-295.841	1187.694	171.554	-196.529	1305.595	68.551	-228.710	1264.853	1214.403	-235.736	1373.706	1156.559	-195.691	1370.604	1158.971	-271.494	1357.400	1156.529	-234.425	1385.798	1074.366	-235.794	1481.467	542.213	-48.720	1489.792	555.867	-288.446	1392.010	571.523	-82.305	1414.919	603.966	-331.089	1416.445	490.121	-93.758	1413.309	517.097	-323.237	1232.010	269.240	-57.120	1350.579	180.875	-373.006	1219.099	240.225	-134.312	1320.036	149.324	-301.165	1207.117	78.080	-144.983	1406.957	37.249	-263.396
